<svg width="161" height="135" viewBox="0 0 161 135" fill="none" xmlns="http://www.w3.org/2000/svg">
<path fill-rule="evenodd" clip-rule="evenodd" d="M125.434 65.6797L111.501 117.676C109.572 124.878 113.846 132.281 121.047 134.21C128.249 136.14 135.652 131.866 137.581 124.665L160.099 40.629C161.086 36.9445 160.449 33.2075 158.628 30.1776C156.915 27.085 153.997 24.665 150.312 23.6777L66.2763 1.16049C59.0745 -0.769232 51.672 3.50463 49.7422 10.7064C47.8125 17.9082 52.0864 25.3108 59.2882 27.2405L113.058 41.648L6.79136 103.001C0.334414 106.729 -1.8779 114.985 1.85002 121.442C5.57794 127.899 13.8344 130.112 20.2914 126.384L125.434 65.6797Z" fill="white"/>
</svg>
